<svg width="101" height="9" viewBox="0 0 101 9" fill="none" xmlns="http://www.w3.org/2000/svg">
<path d="M2.952 8L1.02 2.024H0.252V1.184H3.036V2.024H2.232L3.516 6.26L5.148 1.328H6.048L7.68 6.26L8.952 2.024H8.124V1.184H10.776V2.024H10.008L8.148 8H7.152L5.544 3.272L3.936 8H2.952ZM14.0033 8.132C13.4833 8.132 13.0193 8.032 12.6113 7.832C12.2033 7.624 11.8833 7.332 11.6513 6.956C11.4193 6.58 11.3033 6.136 11.3033 5.624C11.3033 5.12 11.4153 4.68 11.6393 4.304C11.8633 3.928 12.1633 3.64 12.5393 3.44C12.9233 3.232 13.3553 3.128 13.8353 3.128C14.3233 3.128 14.7433 3.232 15.0953 3.44C15.4473 3.64 15.7153 3.924 15.8993 4.292C16.0913 4.66 16.1873 5.088 16.1873 5.576V5.852H12.1553L12.1673 5.216H15.0473C15.0473 4.952 14.9953 4.724 14.8913 4.532C14.7873 4.34 14.6433 4.196 14.4593 4.1C14.2753 3.996 14.0633 3.944 13.8233 3.944C13.5593 3.944 13.3233 4.008 13.1153 4.136C12.9153 4.264 12.7553 4.444 12.6353 4.676C12.5233 4.908 12.4673 5.192 12.4673 5.528C12.4673 5.88 12.5313 6.184 12.6593 6.44C12.7953 6.696 12.9833 6.892 13.2233 7.028C13.4633 7.164 13.7393 7.232 14.0513 7.232C14.3873 7.232 14.6993 7.168 14.9873 7.04C15.2753 6.912 15.5273 6.752 15.7433 6.56L16.1153 7.28C15.8833 7.52 15.5873 7.724 15.2273 7.892C14.8753 8.052 14.4673 8.132 14.0033 8.132ZM20.1952 8.12C19.8272 8.12 19.4952 8.052 19.1992 7.916C18.9032 7.78 18.6432 7.576 18.4192 7.304L18.7432 7.46L18.7312 8H16.7872V7.22H17.5792V1.832H16.8112V1.064H18.7672V3.968L18.4792 3.932C18.7112 3.676 18.9912 3.48 19.3192 3.344C19.6552 3.2 19.9912 3.128 20.3272 3.128C20.7592 3.128 21.1432 3.224 21.4792 3.416C21.8232 3.608 22.0912 3.888 22.2832 4.256C22.4752 4.616 22.5712 5.052 22.5712 5.564C22.5712 6.092 22.4632 6.548 22.2472 6.932C22.0392 7.316 21.7552 7.612 21.3952 7.82C21.0352 8.02 20.6352 8.12 20.1952 8.12ZM19.8712 7.232C20.2952 7.232 20.6432 7.096 20.9152 6.824C21.1952 6.544 21.3352 6.148 21.3352 5.636C21.3352 5.124 21.2032 4.732 20.9392 4.46C20.6752 4.18 20.3352 4.04 19.9192 4.04C19.6792 4.04 19.4312 4.1 19.1752 4.22C18.9192 4.34 18.6872 4.52 18.4792 4.76L18.7672 4.244V7.124L18.4792 6.584C18.6712 6.784 18.8912 6.944 19.1392 7.064C19.3872 7.176 19.6312 7.232 19.8712 7.232ZM25.8756 8.12C25.6116 8.12 25.3596 8.084 25.1196 8.012C24.8876 7.948 24.6836 7.86 24.5076 7.748C24.3396 7.628 24.2116 7.488 24.1236 7.328L24.3516 7.388V8H23.5116V6.392H24.2796L24.3516 7.112L24.1356 6.596C24.2476 6.852 24.4476 7.052 24.7356 7.196C25.0236 7.332 25.3196 7.4 25.6236 7.4C25.8956 7.4 26.1156 7.348 26.2836 7.244C26.4596 7.14 26.5476 6.992 26.5476 6.8C26.5476 6.584 26.4676 6.432 26.3076 6.344C26.1556 6.248 25.9036 6.164 25.5516 6.092L24.9756 5.96C24.4956 5.848 24.1276 5.692 23.8716 5.492C23.6236 5.284 23.4996 4.96 23.4996 4.52C23.4996 4.08 23.6636 3.74 23.9916 3.5C24.3276 3.252 24.7516 3.128 25.2636 3.128C25.4876 3.128 25.7076 3.16 25.9236 3.224C26.1396 3.28 26.3316 3.364 26.4996 3.476C26.6756 3.58 26.7956 3.704 26.8596 3.848L26.6076 3.824V3.236H27.4596V4.82H26.6916L26.5596 3.812L26.7876 4.496C26.7396 4.368 26.6436 4.26 26.4996 4.172C26.3636 4.076 26.2076 4 26.0316 3.944C25.8556 3.888 25.6756 3.86 25.4916 3.86C25.2676 3.86 25.0676 3.908 24.8916 4.004C24.7236 4.092 24.6396 4.236 24.6396 4.436C24.6396 4.596 24.7036 4.72 24.8316 4.808C24.9596 4.888 25.1596 4.964 25.4316 5.036L26.0076 5.156C26.3356 5.228 26.6236 5.32 26.8716 5.432C27.1196 5.544 27.3116 5.7 27.4476 5.9C27.5916 6.092 27.6636 6.36 27.6636 6.704C27.6636 7.016 27.5796 7.28 27.4116 7.496C27.2436 7.704 27.0236 7.86 26.7516 7.964C26.4796 8.068 26.1876 8.12 25.8756 8.12ZM28.3767 8V7.22H29.1927V4.028H28.3887V3.248H30.3807V7.22H31.1487V8H28.3767ZM29.6607 2.276C29.4367 2.276 29.2487 2.208 29.0967 2.072C28.9527 1.928 28.8807 1.748 28.8807 1.532C28.8807 1.308 28.9527 1.128 29.0967 0.991999C29.2487 0.856 29.4367 0.788 29.6607 0.788C29.8927 0.788 30.0807 0.856 30.2247 0.991999C30.3687 1.128 30.4407 1.308 30.4407 1.532C30.4407 1.748 30.3687 1.928 30.2247 2.072C30.0807 2.208 29.8927 2.276 29.6607 2.276ZM33.7703 8C33.3063 8 32.9503 7.888 32.7023 7.664C32.4623 7.432 32.3423 7.076 32.3423 6.596V4.028H31.6223V3.248H32.3423V1.664L33.5423 1.34V3.248H34.7303V4.028H33.5423V6.464C33.5423 6.736 33.5863 6.928 33.6743 7.04C33.7703 7.152 33.9303 7.208 34.1543 7.208H34.8143V8H33.7703ZM38.0971 8.132C37.5771 8.132 37.1131 8.032 36.7051 7.832C36.2971 7.624 35.9771 7.332 35.7451 6.956C35.5131 6.58 35.3971 6.136 35.3971 5.624C35.3971 5.12 35.5091 4.68 35.7331 4.304C35.9571 3.928 36.2571 3.64 36.6331 3.44C37.0171 3.232 37.4491 3.128 37.9291 3.128C38.4171 3.128 38.8371 3.232 39.1891 3.44C39.5411 3.64 39.8091 3.924 39.9931 4.292C40.1851 4.66 40.2811 5.088 40.2811 5.576V5.852H36.2491L36.2611 5.216H39.1411C39.1411 4.952 39.0891 4.724 38.9851 4.532C38.8811 4.34 38.7371 4.196 38.5531 4.1C38.3691 3.996 38.1571 3.944 37.9171 3.944C37.6531 3.944 37.4171 4.008 37.2091 4.136C37.0091 4.264 36.8491 4.444 36.7291 4.676C36.6171 4.908 36.5611 5.192 36.5611 5.528C36.5611 5.88 36.6251 6.184 36.7531 6.44C36.8891 6.696 37.0771 6.892 37.3171 7.028C37.5571 7.164 37.8331 7.232 38.1451 7.232C38.4811 7.232 38.7931 7.168 39.0811 7.04C39.3691 6.912 39.6211 6.752 39.8371 6.56L40.2091 7.28C39.9771 7.52 39.6811 7.724 39.3211 7.892C38.9691 8.052 38.5611 8.132 38.0971 8.132ZM48.652 8.12C47.868 8.12 47.192 7.972 46.624 7.676C46.056 7.372 45.62 6.956 45.316 6.428C45.012 5.892 44.86 5.276 44.86 4.58C44.86 3.884 45.016 3.272 45.328 2.744C45.64 2.216 46.072 1.804 46.624 1.508C47.184 1.212 47.828 1.064 48.556 1.064C49.26 1.064 49.836 1.212 50.284 1.508C50.74 1.804 51.068 2.188 51.268 2.66L50.86 2.564V1.184H51.844V3.404H50.992C50.776 2.948 50.48 2.6 50.104 2.36C49.728 2.12 49.276 2 48.748 2C48.244 2 47.808 2.104 47.44 2.312C47.072 2.512 46.784 2.804 46.576 3.188C46.376 3.564 46.276 4.012 46.276 4.532C46.276 5.076 46.372 5.548 46.564 5.948C46.764 6.34 47.048 6.644 47.416 6.86C47.784 7.068 48.212 7.172 48.7 7.172C49.012 7.164 49.296 7.12 49.552 7.04C49.816 6.96 50.044 6.84 50.236 6.68C50.436 6.52 50.592 6.316 50.704 6.068C50.816 5.82 50.872 5.524 50.872 5.18L51.448 5.336H49.516V4.46H52.156V4.868C52.156 5.38 52.076 5.84 51.916 6.248C51.756 6.648 51.524 6.988 51.22 7.268C50.916 7.548 50.544 7.76 50.104 7.904C49.672 8.048 49.188 8.12 48.652 8.12ZM54.7861 8.132C54.2981 8.132 53.9061 8 53.6101 7.736C53.3221 7.464 53.1781 7.128 53.1781 6.728C53.1781 6.36 53.2661 6.068 53.4421 5.852C53.6181 5.636 53.8501 5.48 54.1381 5.384C54.4261 5.288 54.7381 5.24 55.0741 5.24C55.3541 5.24 55.6261 5.264 55.8901 5.312C56.1541 5.36 56.4021 5.42 56.6341 5.492L56.2981 5.54V5C56.2981 4.648 56.2061 4.388 56.0221 4.22C55.8381 4.052 55.5821 3.968 55.2541 3.968C55.0301 3.968 54.7741 4.004 54.4861 4.076C54.2061 4.148 53.9261 4.252 53.6461 4.388L53.3341 3.668C53.6541 3.484 53.9981 3.348 54.3661 3.26C54.7421 3.172 55.0901 3.128 55.4101 3.128C55.8501 3.128 56.2221 3.2 56.5261 3.344C56.8381 3.488 57.0741 3.696 57.2341 3.968C57.3941 4.232 57.4741 4.544 57.4741 4.904V7.22H58.1581V8H56.4661L56.3341 7.304H56.6941C56.4061 7.584 56.1101 7.792 55.8061 7.928C55.5101 8.064 55.1701 8.132 54.7861 8.132ZM55.0861 7.412C55.3421 7.412 55.5941 7.356 55.8421 7.244C56.0981 7.132 56.3581 6.956 56.6221 6.716L56.2981 7.16V5.84L56.5621 6.068C56.3861 6.004 56.1861 5.952 55.9621 5.912C55.7381 5.872 55.5061 5.852 55.2661 5.852C55.0101 5.852 54.7781 5.908 54.5701 6.02C54.3701 6.132 54.2701 6.344 54.2701 6.656C54.2701 6.872 54.3421 7.052 54.4861 7.196C54.6301 7.34 54.8301 7.412 55.0861 7.412ZM58.6002 8V7.22H59.3922V1.832H58.6242V1.064H60.5802V7.22H61.2882V8H58.6002ZM64.4877 8.132C63.9677 8.132 63.5037 8.032 63.0957 7.832C62.6877 7.624 62.3677 7.332 62.1357 6.956C61.9037 6.58 61.7877 6.136 61.7877 5.624C61.7877 5.12 61.8997 4.68 62.1237 4.304C62.3477 3.928 62.6477 3.64 63.0237 3.44C63.4077 3.232 63.8397 3.128 64.3197 3.128C64.8077 3.128 65.2277 3.232 65.5797 3.44C65.9317 3.64 66.1997 3.924 66.3837 4.292C66.5757 4.66 66.6717 5.088 66.6717 5.576V5.852H62.6397L62.6517 5.216H65.5317C65.5317 4.952 65.4797 4.724 65.3757 4.532C65.2717 4.34 65.1277 4.196 64.9437 4.1C64.7597 3.996 64.5477 3.944 64.3077 3.944C64.0437 3.944 63.8077 4.008 63.5997 4.136C63.3997 4.264 63.2397 4.444 63.1197 4.676C63.0077 4.908 62.9517 5.192 62.9517 5.528C62.9517 5.88 63.0157 6.184 63.1437 6.44C63.2797 6.696 63.4677 6.892 63.7077 7.028C63.9477 7.164 64.2237 7.232 64.5357 7.232C64.8717 7.232 65.1837 7.168 65.4717 7.04C65.7597 6.912 66.0117 6.752 66.2277 6.56L66.5997 7.28C66.3677 7.52 66.0717 7.724 65.7117 7.892C65.3597 8.052 64.9517 8.132 64.4877 8.132ZM67.3795 8V7.22H68.1955V4.028H67.3795V3.248H69.3715V4.676H69.1915C69.2955 4.292 69.4195 3.992 69.5635 3.776C69.7155 3.56 69.8835 3.408 70.0675 3.32C70.2515 3.224 70.4355 3.176 70.6195 3.176C70.7875 3.176 70.9475 3.196 71.0995 3.236C71.2595 3.276 71.4155 3.332 71.5675 3.404L71.3035 4.436C71.1675 4.348 71.0235 4.284 70.8715 4.244C70.7275 4.196 70.5755 4.172 70.4155 4.172C70.1515 4.172 69.9115 4.276 69.6955 4.484C69.4875 4.692 69.3835 5 69.3835 5.408L69.3715 7.22H70.1635V8H67.3795ZM71.9822 8V7.22H72.7982V4.028H71.9942V3.248H73.9862V7.22H74.7542V8H71.9822ZM73.2662 2.276C73.0422 2.276 72.8542 2.208 72.7022 2.072C72.5582 1.928 72.4862 1.748 72.4862 1.532C72.4862 1.308 72.5582 1.128 72.7022 0.991999C72.8542 0.856 73.0422 0.788 73.2662 0.788C73.4982 0.788 73.6862 0.856 73.8302 0.991999C73.9742 1.128 74.0462 1.308 74.0462 1.532C74.0462 1.748 73.9742 1.928 73.8302 2.072C73.6862 2.208 73.4982 2.276 73.2662 2.276ZM79.2188 8V7.16H80.0708V2.024H79.2188V1.184H85.2428V3.368H84.3188V2.024H81.4028V4.052H83.1068V3.344H83.7908V5.648H83.1188V4.904H81.4028V7.16H82.2908V8H79.2188ZM88.356 8.132C87.844 8.132 87.392 8.028 87 7.82C86.608 7.612 86.304 7.32 86.088 6.944C85.88 6.568 85.776 6.128 85.776 5.624C85.776 5.112 85.88 4.672 86.088 4.304C86.304 3.928 86.608 3.64 87 3.44C87.392 3.232 87.844 3.128 88.356 3.128C88.876 3.128 89.332 3.232 89.724 3.44C90.116 3.64 90.42 3.928 90.636 4.304C90.852 4.672 90.96 5.108 90.96 5.612C90.96 6.116 90.852 6.556 90.636 6.932C90.42 7.308 90.116 7.604 89.724 7.82C89.332 8.028 88.876 8.132 88.356 8.132ZM88.356 7.22C88.652 7.22 88.908 7.156 89.124 7.028C89.34 6.892 89.504 6.704 89.616 6.464C89.736 6.224 89.796 5.94 89.796 5.612C89.796 5.292 89.736 5.016 89.616 4.784C89.504 4.544 89.34 4.36 89.124 4.232C88.908 4.104 88.652 4.04 88.356 4.04C88.068 4.04 87.816 4.104 87.6 4.232C87.392 4.36 87.228 4.544 87.108 4.784C86.996 5.024 86.94 5.304 86.94 5.624C86.94 5.944 86.996 6.224 87.108 6.464C87.228 6.704 87.392 6.892 87.6 7.028C87.816 7.156 88.068 7.22 88.356 7.22ZM93.5945 8C93.1305 8 92.7745 7.888 92.5265 7.664C92.2865 7.432 92.1665 7.076 92.1665 6.596V4.028H91.4465V3.248H92.1665V1.664L93.3665 1.34V3.248H94.5545V4.028H93.3665V6.464C93.3665 6.736 93.4105 6.928 93.4985 7.04C93.5945 7.152 93.7545 7.208 93.9785 7.208H94.6385V8H93.5945ZM97.8013 8.132C97.2893 8.132 96.8373 8.028 96.4453 7.82C96.0533 7.612 95.7493 7.32 95.5333 6.944C95.3253 6.568 95.2213 6.128 95.2213 5.624C95.2213 5.112 95.3253 4.672 95.5333 4.304C95.7493 3.928 96.0533 3.64 96.4453 3.44C96.8373 3.232 97.2893 3.128 97.8013 3.128C98.3213 3.128 98.7773 3.232 99.1693 3.44C99.5613 3.64 99.8653 3.928 100.081 4.304C100.297 4.672 100.405 5.108 100.405 5.612C100.405 6.116 100.297 6.556 100.081 6.932C99.8653 7.308 99.5613 7.604 99.1693 7.82C98.7773 8.028 98.3213 8.132 97.8013 8.132ZM97.8013 7.22C98.0973 7.22 98.3533 7.156 98.5693 7.028C98.7853 6.892 98.9493 6.704 99.0613 6.464C99.1813 6.224 99.2413 5.94 99.2413 5.612C99.2413 5.292 99.1813 5.016 99.0613 4.784C98.9493 4.544 98.7853 4.36 98.5693 4.232C98.3533 4.104 98.0973 4.04 97.8013 4.04C97.5133 4.04 97.2613 4.104 97.0453 4.232C96.8373 4.36 96.6733 4.544 96.5533 4.784C96.4413 5.024 96.3853 5.304 96.3853 5.624C96.3853 5.944 96.4413 6.224 96.5533 6.464C96.6733 6.704 96.8373 6.892 97.0453 7.028C97.2613 7.156 97.5133 7.22 97.8013 7.22Z" fill="#1E1E1E"/>
</svg>
